<?xml version="1.0" encoding="UTF-8"?>
<svg xmlns="http://www.w3.org/2000/svg" xmlns:xlink="http://www.w3.org/1999/xlink" width="512px" height="512px" viewBox="0 0 512 512" version="1.1">
<g id="surface1">
<path style="fill:none;stroke-width:2;stroke-linecap:round;stroke-linejoin:round;stroke:rgb(0%,0%,0%);stroke-opacity:1;stroke-miterlimit:4;" d="M 21 21 L 4.599976 21 C 4.040039 21 3.759888 21 3.546021 20.891052 C 3.357788 20.795105 3.204895 20.642212 3.108948 20.453979 C 3 20.240112 3 19.960144 3 19.400024 L 3 3 M 21 6.999939 L 15.565613 12.434326 C 15.367676 12.632263 15.268616 12.731323 15.154541 12.768311 C 15.054016 12.801086 14.945984 12.801086 14.845459 12.768311 C 14.731384 12.731323 14.632324 12.632263 14.434387 12.434326 L 12.565613 10.565735 C 12.367676 10.367615 12.268616 10.268738 12.154541 10.231567 C 12.054016 10.198975 11.945984 10.198975 11.845459 10.231567 C 11.731384 10.268738 11.632324 10.367615 11.434387 10.565735 L 6.999939 15 M 21 6.999939 L 17.000061 6.999939 M 21 6.999939 L 21 11.000061 " transform="matrix(21.333333,0,0,21.333333,0,0)"/>
</g>
</svg>
